<?xml version="1.0" encoding="UTF-8"?>
<svg version="1.1" xmlns="http://www.w3.org/2000/svg" width="784" height="318">
<path d="M0 0 C8.05215163 6.4810001 12.56020915 12.93786962 13.8203125 23.15234375 C14.66207256 38.6687875 4.35795093 52.11464307 -5.4375 63.0625 C-9.34250179 67.15846134 -13.37490202 71.12363597 -17.4375 75.0625 C-18.4275 74.5675 -18.4275 74.5675 -19.4375 74.0625 C-19.55355098 69.47937916 -19.62470362 64.89663551 -19.6875 60.3125 C-19.73777344 58.35957031 -19.73777344 58.35957031 -19.7890625 56.3671875 C-19.80195312 55.11679688 -19.81484375 53.86640625 -19.828125 52.578125 C-19.84907227 51.42602539 -19.87001953 50.27392578 -19.89160156 49.08691406 C-19.3380692 45.40026952 -18.28516816 44.37468697 -15.4375 42.0625 C-11.17014573 38.3031641 -9.35155919 35.72966699 -8.4375 30.0625 C-8.44780753 23.16676142 -9.70170005 17.36673466 -12.4375 11.0625 C-12.52837891 12.32707031 -12.52837891 12.32707031 -12.62109375 13.6171875 C-12.70488281 14.71289062 -12.78867188 15.80859375 -12.875 16.9375 C-12.95621094 18.02804688 -13.03742188 19.11859375 -13.12109375 20.2421875 C-13.4375 23.0625 -13.4375 23.0625 -14.4375 25.0625 C-16.0875 24.7325 -17.7375 24.4025 -19.4375 24.0625 C-19.4375 19.4425 -19.4375 14.8225 -19.4375 10.0625 C-20.4275 10.3925 -21.4175 10.7225 -22.4375 11.0625 C-22.47617188 12.43535156 -22.47617188 12.43535156 -22.515625 13.8359375 C-22.60070312 15.61871094 -22.60070312 15.61871094 -22.6875 17.4375 C-22.73390625 18.62085937 -22.7803125 19.80421875 -22.828125 21.0234375 C-23.4375 24.0625 -23.4375 24.0625 -25.484375 25.4765625 C-26.45117188 25.76660156 -26.45117188 25.76660156 -27.4375 26.0625 C-29.4375 24.0625 -29.4375 24.0625 -29.6328125 20.8046875 C-29.60960938 19.52851562 -29.58640625 18.25234375 -29.5625 16.9375 C-29.54445313 15.65617187 -29.52640625 14.37484375 -29.5078125 13.0546875 C-29.48460938 12.06726563 -29.46140625 11.07984375 -29.4375 10.0625 C-30.0975 10.0625 -30.7575 10.0625 -31.4375 10.0625 C-34.97781989 23.09211439 -34.97781989 23.09211439 -33.4375 36.25 C-31.69304328 39.0585586 -31.69304328 39.0585586 -29.50976562 40.34326172 C-25.70427 42.91085604 -23.69971682 44.74189681 -22.78515625 49.34790039 C-22.6506993 53.25097178 -22.73776164 57.10368869 -22.9375 61 C-22.97768424 62.36512979 -23.01417641 63.73037353 -23.046875 65.09570312 C-23.1408733 68.42089304 -23.27216496 71.74021956 -23.4375 75.0625 C-26.68362251 74.48418296 -28.27581432 73.59043599 -30.5390625 71.2109375 C-31.10705566 70.61434326 -31.67504883 70.01774902 -32.26025391 69.40307617 C-32.85499512 68.75443604 -33.44973633 68.1057959 -34.0625 67.4375 C-34.67915527 66.76887939 -35.29581055 66.10025879 -35.93115234 65.41137695 C-46.71912327 53.44325296 -56.91894363 39.3701133 -56.72265625 22.6015625 C-55.93124188 15.55472226 -53.18579979 9.29671198 -48.4375 4.0625 C-33.67645288 -7.66021165 -16.45385459 -9.27399077 0 0 Z " fill="#C1285E" transform="translate(102.4375,40.9375)"/>
<path d="M0 0 C2.13776637 0.81104302 2.13776637 0.81104302 5.015625 0.65625 C12.26126137 6.94851316 16.11863528 13.28713442 17.26953125 22.7421875 C18.14258036 38.34442001 7.73444259 51.58896703 -1.984375 62.65625 C-7.46129052 68.77069008 -7.46129052 68.77069008 -9.984375 70.65625 C-11.304375 70.65625 -12.624375 70.65625 -13.984375 70.65625 C-14.04249273 66.90631521 -14.07801093 63.15649648 -14.109375 59.40625 C-14.12613281 58.34277344 -14.14289063 57.27929688 -14.16015625 56.18359375 C-14.16660156 55.15878906 -14.17304687 54.13398437 -14.1796875 53.078125 C-14.19016113 52.13549805 -14.20063477 51.19287109 -14.21142578 50.22167969 C-13.97556713 47.55673059 -13.34099159 45.93761908 -11.984375 43.65625 C-10.994375 43.65625 -10.004375 43.65625 -8.984375 43.65625 C-8.654375 42.66625 -8.324375 41.67625 -7.984375 40.65625 C-7.324375 40.65625 -6.664375 40.65625 -5.984375 40.65625 C-5.695625 39.8725 -5.406875 39.08875 -5.109375 38.28125 C-3.984375 35.65625 -3.984375 35.65625 -1.984375 33.65625 C-1.23495251 26.03712135 -2.64070652 18.57352404 -5.984375 11.65625 C-8.49400555 9.75329658 -8.49400555 9.75329658 -10.984375 8.65625 C-11.644375 9.97625 -12.304375 11.29625 -12.984375 12.65625 C-13.314375 11.33625 -13.644375 10.01625 -13.984375 8.65625 C-16.624375 8.32625 -19.264375 7.99625 -21.984375 7.65625 C-22.314375 8.31625 -22.644375 8.97625 -22.984375 9.65625 C-23.644375 9.32625 -24.304375 8.99625 -24.984375 8.65625 C-24.324375 7.33625 -23.664375 6.01625 -22.984375 4.65625 C-21.994375 4.65625 -21.004375 4.65625 -19.984375 4.65625 C-19.984375 3.99625 -19.984375 3.33625 -19.984375 2.65625 C-20.644375 2.32625 -21.304375 1.99625 -21.984375 1.65625 C-15.11139945 -3.98940849 -7.96598288 -3.0081334 0 0 Z " fill="#EC6040" transform="translate(98.984375,41.34375)"/>
<path d="M0 0 C0.33 0.99 0.66 1.98 1 3 C0.53980469 3.75410156 0.07960938 4.50820313 -0.39453125 5.28515625 C-2.29853675 8.50482491 -2.4906631 10.72384381 -2.6875 14.4375 C-2.78611328 16.07525391 -2.78611328 16.07525391 -2.88671875 17.74609375 C-2.99422516 20.83412284 -3.02330005 23.91041396 -3 27 C-2.34 27.33 -1.68 27.66 -1 28 C-0.30562253 29.99054876 0.35610218 31.99255385 1 34 C2.5841627 37.545507 4.40062722 40.62977527 6.6875 43.75 C9 47 9 47 9 49 C10.89179203 49.6814823 10.89179203 49.6814823 13 50 C13.66 49.34 14.32 48.68 15 48 C17.625 47.375 17.625 47.375 20 47 C20.2165625 45.824375 20.2165625 45.824375 20.4375 44.625 C21 42 21 42 22 40 C20.68 40 19.36 40 18 40 C17.67 39.34 17.34 38.68 17 38 C15.515 38.495 15.515 38.495 14 39 C12.20327502 36.30491252 11.64178421 35.02555412 11 32 C10.82984375 31.42121094 10.6596875 30.84242187 10.484375 30.24609375 C9.88380861 27.46120928 9.83030044 24.84807105 9.8125 22 C9.79832031 20.96875 9.78414062 19.9375 9.76953125 18.875 C10.00074034 15.99076451 10.35393468 14.36245919 12 12 C12.99 11.67 13.98 11.34 15 11 C15.03738281 12.01320313 15.07476562 13.02640625 15.11328125 14.0703125 C15.17898388 15.42190939 15.24542971 16.77347029 15.3125 18.125 C15.33505859 18.79015625 15.35761719 19.4553125 15.38085938 20.140625 C15.63382742 24.8320324 16.39877989 28.0851897 19 32 C20.38079347 32.98696895 21.76670657 33.96679486 23.15625 34.94140625 C26.05283055 37.35058142 26.90641736 38.52764727 27.6484375 42.27294922 C27.7866712 46.1805922 27.69997312 50.03660931 27.5 53.9375 C27.45981576 55.30262979 27.42332359 56.66787353 27.390625 58.03320312 C27.2966267 61.35839304 27.16533504 64.67771956 27 68 C23.75387749 67.42168296 22.16168568 66.52793599 19.8984375 64.1484375 C19.33044434 63.55184326 18.76245117 62.95524902 18.17724609 62.34057617 C17.58250488 61.69193604 16.98776367 61.0432959 16.375 60.375 C15.75834473 59.70637939 15.14168945 59.03775879 14.50634766 58.34887695 C3.70316312 46.36387506 -6.43396152 32.3289203 -6.29296875 15.55078125 C-5.66894733 10.11763477 -3.91723779 3.91723779 0 0 Z " fill="#8F355C" transform="translate(52,48)"/>
<path d="M0 0 C-0.52891804 7.66931154 -2.64888751 12.02889854 -8.4375 17.25 C-13.9232427 21.68973244 -18.0698267 22.33533097 -25 22 C-25.99 21.67 -26.98 21.34 -28 21 C-28 20.34 -28 19.68 -28 19 C-28.59167969 19.13019531 -29.18335937 19.26039062 -29.79296875 19.39453125 C-32.26382627 19.82582286 -34.49111209 20.09665732 -37 20 C-40.29506028 17.66599897 -41.65310162 16.09025205 -42.875 12.25 C-42.91625 11.5075 -42.9575 10.765 -43 10 C-42.67 9.67 -42.34 9.34 -42 9 C-34.89340102 9.23688663 -34.89340102 9.23688663 -31 12.5625 C-30.01 13.7690625 -30.01 13.7690625 -29 15 C-28.505 14.13375 -28.01 13.2675 -27.5 12.375 C-22.21826853 4.62602373 -9.54680775 -3.54529511 0 0 Z " fill="#94C237" transform="translate(117,14)"/>
<path d="M0 0 C53.46 0 106.92 0 162 0 C162.33 0.99 162.66 1.98 163 3 C109.21 3 55.42 3 0 3 C0 2.01 0 1.02 0 0 Z " fill="#1A1A1B" transform="translate(0,144)"/>
<path d="M0 0 C2 0.33333333 4 0.66666667 6 1 C6.33 0.67 6.66 0.34 7 0 C12.52941176 -0.23529412 12.52941176 -0.23529412 15 1 C15.33 1.99 15.66 2.98 16 4 C16.66 3.01 17.32 2.02 18 1 C19.8125 1.1875 19.8125 1.1875 22 2 C26.74183681 7.87987765 28.62992839 16.59860688 28.35546875 24.03515625 C27.79091003 27.15573908 26.20348216 28.79651784 24 31 C23.319375 31.928125 22.63875 32.85625 21.9375 33.8125 C21.298125 34.534375 20.65875 35.25625 20 36 C19.01 36 18.02 36 17 36 C16.08341617 39.17053195 15.81167961 42.12823862 15.68359375 45.421875 C15.64169922 46.44667969 15.59980469 47.47148438 15.55664062 48.52734375 C15.51732422 49.59082031 15.47800781 50.65429688 15.4375 51.75 C15.39431641 52.82894531 15.35113281 53.90789062 15.30664062 55.01953125 C15.20071011 57.67956428 15.09863579 60.33968812 15 63 C16.485 63.495 16.485 63.495 18 64 C16.68 64.99 15.36 65.98 14 67 C11.23291906 64.23291906 12.71501375 55.91286232 12.6875 52.1875 C12.65849609 50.89005859 12.62949219 49.59261719 12.59960938 48.25585938 C12.59123047 47.00998047 12.58285156 45.76410156 12.57421875 44.48046875 C12.55963623 43.33473389 12.54505371 42.18899902 12.5300293 41.00854492 C13.1027881 37.34199599 14.16700448 36.30555032 17 34 C21.26735427 30.2406641 23.08594081 27.66716699 24 22 C23.98969247 15.10426142 22.73579995 9.30423466 20 3 C19.90912109 4.26457031 19.90912109 4.26457031 19.81640625 5.5546875 C19.73261719 6.65039062 19.64882812 7.74609375 19.5625 8.875 C19.48128906 9.96554688 19.40007812 11.05609375 19.31640625 12.1796875 C19 15 19 15 18 17 C16.35 16.67 14.7 16.34 13 16 C13 11.38 13 6.76 13 2 C12.01 2.33 11.02 2.66 10 3 C9.97421875 3.91523437 9.9484375 4.83046875 9.921875 5.7734375 C9.86515625 6.96195313 9.8084375 8.15046875 9.75 9.375 C9.68039063 11.15003906 9.68039063 11.15003906 9.609375 12.9609375 C9 16 9 16 6.953125 17.4140625 C5.98632812 17.70410156 5.98632812 17.70410156 5 18 C3 16 3 16 2.8046875 12.7421875 C2.82789062 11.46601562 2.85109375 10.18984375 2.875 8.875 C2.89304687 7.59367187 2.91109375 6.31234375 2.9296875 4.9921875 C2.95289062 4.00476562 2.97609375 3.01734375 3 2 C2.34 2 1.68 2 1 2 C-0.485 8.435 -0.485 8.435 -2 15 C-2.33 15 -2.66 15 -3 15 C-4.125 9.375 -4.125 9.375 -3 6 C-2.34 6 -1.68 6 -1 6 C-1.020625 5.195625 -1.04125 4.39125 -1.0625 3.5625 C-1 1 -1 1 0 0 Z " fill="#B25357" transform="translate(70,49)"/>
<path d="M0 0 C0.99 0.66 1.98 1.32 3 2 C2.67 2.99 2.34 3.98 2 5 C-4.87541196 6.05261471 -11.61455009 6.14956553 -18.5625 6.125 C-20.20895508 6.13080078 -20.20895508 6.13080078 -21.88867188 6.13671875 C-27.36527775 6.13011645 -32.60694982 5.97492729 -38 5 C-38.33 3.68 -38.66 2.36 -39 1 C-24.89277459 -3.16339722 -14.37856799 -3.75842664 0 0 Z " fill="#E2DFE1" transform="translate(100,122)"/>
<path d="M0 0 C-0.41117877 5.96209223 -1.25270405 9.31588007 -5 14 C-5.33 14 -5.66 14 -6 14 C-6 12.02 -6 10.04 -6 8 C-4.68 7.67 -3.36 7.34 -2 7 C-1.67 5.02 -1.34 3.04 -1 1 C-13.68521956 3.58093947 -13.68521956 3.58093947 -24 11 C-24.33 11.99 -24.66 12.98 -25 14 C-24.01 14 -23.02 14 -22 14 C-22.99 16.475 -22.99 16.475 -24 19 C-18.3511566 19.33228491 -14.79224763 19.34005138 -10 16 C-9.34 16.33 -8.68 16.66 -8 17 C-12.39931624 20.03064007 -15.59616799 22.14546906 -21 22.125 C-22.0209375 22.12886719 -22.0209375 22.12886719 -23.0625 22.1328125 C-25 22 -25 22 -28 21 C-28 20.34 -28 19.68 -28 19 C-28.59167969 19.13019531 -29.18335937 19.26039062 -29.79296875 19.39453125 C-32.26382627 19.82582286 -34.49111209 20.09665732 -37 20 C-40.29506028 17.66599897 -41.65310162 16.09025205 -42.875 12.25 C-42.91625 11.5075 -42.9575 10.765 -43 10 C-42.67 9.67 -42.34 9.34 -42 9 C-34.89340102 9.23688663 -34.89340102 9.23688663 -31 12.5625 C-30.01 13.7690625 -30.01 13.7690625 -29 15 C-28.505 14.13375 -28.01 13.2675 -27.5 12.375 C-22.21826853 4.62602373 -9.54680775 -3.54529511 0 0 Z " fill="#A8BA69" transform="translate(117,14)"/>
<path d="M0 0 C1.97798737 0.81170018 1.97798737 0.81170018 3.91796875 -0.44140625 C4.24796875 1.20859375 4.57796875 2.85859375 4.91796875 4.55859375 C2.93796875 4.55859375 0.95796875 4.55859375 -1.08203125 4.55859375 C-1.41203125 5.21859375 -1.74203125 5.87859375 -2.08203125 6.55859375 C-3.40203125 6.55859375 -4.72203125 6.55859375 -6.08203125 6.55859375 C-5.58703125 7.32171875 -5.09203125 8.08484375 -4.58203125 8.87109375 C-3.08203125 11.55859375 -3.08203125 11.55859375 -3.08203125 14.55859375 C-3.74203125 14.55859375 -4.40203125 14.55859375 -5.08203125 14.55859375 C-5.55640625 13.75421875 -6.03078125 12.94984375 -6.51953125 12.12109375 C-7.88186797 9.26678615 -7.88186797 9.26678615 -11.08203125 8.55859375 C-11.74203125 9.87859375 -12.40203125 11.19859375 -13.08203125 12.55859375 C-13.41203125 11.23859375 -13.74203125 9.91859375 -14.08203125 8.55859375 C-16.72203125 8.22859375 -19.36203125 7.89859375 -22.08203125 7.55859375 C-22.41203125 8.21859375 -22.74203125 8.87859375 -23.08203125 9.55859375 C-23.74203125 9.22859375 -24.40203125 8.89859375 -25.08203125 8.55859375 C-24.42203125 7.23859375 -23.76203125 5.91859375 -23.08203125 4.55859375 C-22.09203125 4.55859375 -21.10203125 4.55859375 -20.08203125 4.55859375 C-20.08203125 3.89859375 -20.08203125 3.23859375 -20.08203125 2.55859375 C-20.74203125 2.22859375 -21.40203125 1.89859375 -22.08203125 1.55859375 C-15.16085485 -4.12665829 -7.9880788 -3.09349007 0 0 Z " fill="#E0494A" transform="translate(99.08203125,41.44140625)"/>
<path d="M0 0 C0.05607422 1.51980469 0.05607422 1.51980469 0.11328125 3.0703125 C0.17898388 4.42190939 0.24542971 5.77347029 0.3125 7.125 C0.33505859 7.79015625 0.35761719 8.4553125 0.38085938 9.140625 C0.63280929 13.81315065 1.42892303 17.08772205 4 21 C5.21410226 21.82394029 6.43472004 22.63832552 7.66015625 23.4453125 C10.37661136 25.63648623 10.94563786 26.69352701 11.56591797 30.19042969 C11.68895935 34.10018455 11.61153068 37.9703331 11.4375 41.875 C11.4023501 43.24471215 11.37041748 44.61451087 11.34179688 45.984375 C11.25945436 49.32512834 11.1444778 52.66145156 11 56 C10.01 55.01 9.02 54.02 8 53 C8.66 53 9.32 53 10 53 C10 44.75 10 36.5 10 28 C7.69 28.33 5.38 28.66 3 29 C2.67 28.34 2.34 27.68 2 27 C1.01 27.33 0.02 27.66 -1 28 C-2.79672498 25.30491252 -3.35821579 24.02555412 -4 21 C-4.17015625 20.42121094 -4.3403125 19.84242187 -4.515625 19.24609375 C-5.11619139 16.46120928 -5.16969956 13.84807105 -5.1875 11 C-5.20167969 9.96875 -5.21585938 8.9375 -5.23046875 7.875 C-5.00041251 5.00514593 -4.57370433 3.38540446 -3 1 C-1 0 -1 0 0 0 Z " fill="#971F52" transform="translate(67,59)"/>
<path d="M0 0 C1.32 0.33 2.64 0.66 4 1 C4 9.25 4 17.5 4 26 C3.34 26 2.68 26 2 26 C0.76995196 24.57048472 -0.45371641 23.13429833 -1.625 21.65625 C-3.15474833 19.74901366 -3.15474833 19.74901366 -5.8125 17.3125 C-8 15 -8 15 -8 12 C-5.64046906 9.64046906 -4.22104383 9.50858587 -1 9 C-0.7834375 7.824375 -0.7834375 7.824375 -0.5625 6.625 C0 4 0 4 1 2 C0.34 1.67 -0.32 1.34 -1 1 C-0.67 0.67 -0.34 0.34 0 0 Z " fill="#982758" transform="translate(73,86)"/>
<path d="M0 0 C0.66 0 1.32 0 2 0 C1.5144947 4.43119914 0.17950918 6.09494662 -3.0625 9.0625 C-6.69748446 12.89834812 -7.54362853 15.27721521 -7.5 20.5625 C-7.37305865 22.37821471 -7.2201163 24.19321201 -7 26 C-2.12133225 25.54617044 0.43820701 24.3639156 4 21 C4.66 20.01 5.32 19.02 6 18 C6.66 18 7.32 18 8 18 C8.33 16.68 8.66 15.36 9 14 C9.99 14 10.98 14 12 14 C8.39246816 19.96026999 3.75213184 24.92994385 -1 30 C-1.6703125 30.76054688 -2.340625 31.52109375 -3.03125 32.3046875 C-5 34 -5 34 -9 34 C-9.05811773 30.25006521 -9.09363593 26.50024648 -9.125 22.75 C-9.14175781 21.68652344 -9.15851563 20.62304688 -9.17578125 19.52734375 C-9.18222656 18.50253906 -9.18867187 17.47773437 -9.1953125 16.421875 C-9.20578613 15.47924805 -9.21625977 14.53662109 -9.22705078 13.56542969 C-8.99119213 10.90048059 -8.35661659 9.28136908 -7 7 C-6.01 7 -5.02 7 -4 7 C-3.67 6.01 -3.34 5.02 -3 4 C-2.34 4 -1.68 4 -1 4 C-0.67 2.68 -0.34 1.36 0 0 Z " fill="#DF4C4B" transform="translate(94,78)"/>
<path d="M0 0 C-0.33 0.66 -0.66 1.32 -1 2 C-1.5264209 1.78706299 -2.0528418 1.57412598 -2.59521484 1.35473633 C-8.73065977 -0.93218425 -14.11369978 -1.42977846 -20.625 -1.3125 C-21.52734375 -1.31572266 -22.4296875 -1.31894531 -23.359375 -1.32226562 C-27.39904447 -1.2898776 -31.03132715 -1.1407338 -34.8984375 0.08203125 C-37.90732426 0.97257078 -39.1450782 1.14196872 -42 0 C-28.35109231 -7.31191483 -13.58887608 -9.05925072 0 0 Z " fill="#C05A60" transform="translate(102,41)"/>
<path d="M0 0 C-0.99 0 -1.98 0 -3 0 C-2.67 0.99 -2.34 1.98 -2 3 C4.56699525 3.84843174 10.94550593 4.12561146 17.5625 4.0625 C18.93245117 4.05573242 18.93245117 4.05573242 20.33007812 4.04882812 C22.55345738 4.0371874 24.77669121 4.02083851 27 4 C27.33 3.01 27.66 2.02 28 1 C28 2.32 28 3.64 28 5 C21.12458804 6.05261471 14.38544991 6.14956553 7.4375 6.125 C5.79104492 6.13080078 5.79104492 6.13080078 4.11132812 6.13671875 C-1.36527775 6.13011645 -6.60694982 5.97492729 -12 5 C-12.33 3.68 -12.66 2.36 -13 1 C-11.58622218 0.63447197 -10.16879424 0.28304505 -8.75 -0.0625 C-7.96109375 -0.25972656 -7.1721875 -0.45695312 -6.359375 -0.66015625 C-3.89605178 -1.01497267 -2.34395868 -0.76877544 0 0 Z " fill="#D9D5D8" transform="translate(74,122)"/>
<path d="M0 0 C5.98728476 2.64144916 9.44380688 8.12795551 11.82421875 14.05078125 C14.57529459 23.78685816 12.51942352 31.71437811 9 41 C8 38 8 38 8.9375 35.4375 C11.15994475 28.24723758 10.57011935 20.06782821 8 13 C6.17094137 9.77409181 4.08704971 6.98729691 1.33984375 4.4921875 C0 3 0 3 0 0 Z " fill="#BB6051" transform="translate(103,42)"/>
<path d="M0 0 C1.32 0 2.64 0 4 0 C5.1577506 3.47325181 5.06866652 6.36067448 5 10 C5.66 10 6.32 10 7 10 C7.33 8.68 7.66 7.36 8 6 C8 9.63 8 13.26 8 17 C6.68 17 5.36 17 4 17 C3 16 3 16 2.90234375 12.83984375 C2.91974609 10.90818359 2.91974609 10.90818359 2.9375 8.9375 C2.94652344 7.64714844 2.95554687 6.35679688 2.96484375 5.02734375 C2.97644531 4.02832031 2.98804687 3.02929688 3 2 C2.34 2 1.68 2 1 2 C-0.485 8.435 -0.485 8.435 -2 15 C-2.33 15 -2.66 15 -3 15 C-4.125 9.375 -4.125 9.375 -3 6 C-2.34 6 -1.68 6 -1 6 C-1.020625 5.195625 -1.04125 4.39125 -1.0625 3.5625 C-1 1 -1 1 0 0 Z " fill="#A53E5E" transform="translate(70,49)"/>
<path d="M0 0 C3.19350481 5.63334249 2.66073412 11.1943211 1.20703125 17.3671875 C-0.34866042 22.62435246 -1.85927619 27.45335008 -5 32 C-7.0625 32.75 -7.0625 32.75 -9 33 C-9.99 33.495 -9.99 33.495 -11 34 C-10.34 32.68 -9.68 31.36 -9 30 C-8.34 30 -7.68 30 -7 30 C-5.39644899 26.49223216 -4.77963136 23.85645121 -5 20 C-4.01 20 -3.02 20 -2 20 C0.46254726 13.38190423 0.18935472 6.99560484 0 0 Z " fill="#D97147" transform="translate(112,60)"/>
<path d="M0 0 C2.69082872 0.17635452 5.32851446 0.61835921 8 1 C8.66 2.98 9.32 4.96 10 7 C9.01 6.67 8.02 6.34 7 6 C7.33 6.99 7.66 7.98 8 9 C3.53367217 9.36213469 3.53367217 9.36213469 1.25 7.8125 C-0.30587744 5.55647772 -0.71473658 3.71000247 -1 1 C-0.67 0.67 -0.34 0.34 0 0 Z " fill="#90B33B" transform="translate(75,23)"/>
<path d="M0 0 C0.33 0.66 0.66 1.32 1 2 C1.73605469 1.98839844 2.47210938 1.97679688 3.23046875 1.96484375 C4.20628906 1.95582031 5.18210937 1.94679688 6.1875 1.9375 C7.15042969 1.92589844 8.11335938 1.91429688 9.10546875 1.90234375 C11.85576513 1.99513378 14.32479591 2.37888315 17 3 C17 3.33 17 3.66 17 4 C12.05 4 7.1 4 2 4 C2 4.99 2 5.98 2 7 C0.02 7 -1.96 7 -4 7 C-4.33 5.68 -4.66 4.36 -5 3 C-4.01 3 -3.02 3 -2 3 C-2 2.34 -2 1.68 -2 1 C-1.34 0.67 -0.68 0.34 0 0 Z " fill="#F0EDF0" transform="translate(76,119)"/>
<path d="M0 0 C0.33 0.99 0.66 1.98 1 3 C0.53980469 3.75796875 0.07960938 4.5159375 -0.39453125 5.296875 C-2.27663745 8.465774 -2.48866758 10.59148341 -2.6875 14.25 C-2.75195312 15.38308594 -2.81640625 16.51617187 -2.8828125 17.68359375 C-3.02816283 21.79700822 -3.06975207 25.88462784 -3 30 C-6.42717596 24.85923606 -6.69468961 19.04843086 -6 13 C-3.29487179 3.29487179 -3.29487179 3.29487179 0 0 Z " fill="#9F325F" transform="translate(52,48)"/>
<path d="M0 0 C0.66 0.66 1.32 1.32 2 2 C-3.33338902 8.7161195 -8.78169713 15.08668201 -15 21 C-15.33 20.01 -15.66 19.02 -16 18 C-15.01 17.67 -14.02 17.34 -13 17 C-12.566875 15.8553125 -12.566875 15.8553125 -12.125 14.6875 C-10.72623716 11.346011 -8.86293443 10.14720083 -6 8 C-5.34 7.01 -4.68 6.02 -4 5 C-3.34 5 -2.68 5 -2 5 C-1.855625 4.360625 -1.71125 3.72125 -1.5625 3.0625 C-1 1 -1 1 0 0 Z " fill="#C2534E" transform="translate(104,91)"/>
<path d="M0 0 C-1.04275251 3.2441189 -2.61240491 4.60194664 -5.4375 6.3125 C-9 8 -9 8 -12 7 C-8.95251265 1.3621484 -6.67257336 -2.03884186 0 0 Z " fill="#8DB633" transform="translate(103,21)"/>
<path d="M0 0 C0 0.66 0 1.32 0 2 C-0.99 2.33 -1.98 2.66 -3 3 C-3.33 7.29 -3.66 11.58 -4 16 C-4.33 16 -4.66 16 -5 16 C-5.33 14.02 -5.66 12.04 -6 10 C-6.66 10 -7.32 10 -8 10 C-8.33 7.03 -8.66 4.06 -9 1 C-5.8035914 -0.06546953 -3.34252724 -0.07427838 0 0 Z " fill="#BA4859" transform="translate(83,49)"/>
<path d="M0 0 C5.75 0.75 5.75 0.75 8 3 C8.22705078 5.88916016 8.22705078 5.88916016 8.1953125 9.5390625 C8.18886719 10.84101562 8.18242188 12.14296875 8.17578125 13.484375 C8.15906929 14.86458595 8.14213939 16.24479429 8.125 17.625 C8.11497006 19.01301452 8.10584423 20.40103589 8.09765625 21.7890625 C8.07401863 25.19288026 8.04106867 28.59635506 8 32 C7.01 31.01 6.02 30.02 5 29 C5.66 29 6.32 29 7 29 C7 20.75 7 12.5 7 4 C4.525 3.01 4.525 3.01 2 2 C1.34 1.34 0.68 0.68 0 0 Z " fill="#702045" transform="translate(70,83)"/>
<path d="M0 0 C0.33 0 0.66 0 1 0 C1 2.31 1 4.62 1 7 C1.66 7 2.32 7 3 7 C3.33 5.68 3.66 4.36 4 3 C4 6.63 4 10.26 4 14 C2.68 14 1.36 14 0 14 C-1.41778293 11.16443413 -0.86257622 9.0091294 -0.5625 5.875 C-0.46066406 4.77929688 -0.35882813 3.68359375 -0.25390625 2.5546875 C-0.17011719 1.71164063 -0.08632812 0.86859375 0 0 Z " fill="#A13049" transform="translate(74,52)"/>
<path d="M0 0 C3.03731714 3.60933178 3.50187412 5.73175893 3.37109375 10.33984375 C2.65987857 15.43813364 0.81753467 20.20462952 -1 25 C-2 22 -2 22 -1.0703125 19.3359375 C0.22779562 15.29000928 0.22393137 11.83338814 0.125 7.625 C0.11146484 6.52091797 0.11146484 6.52091797 0.09765625 5.39453125 C0.07430144 3.5962112 0.03843836 1.79806089 0 0 Z " fill="#C36D51" transform="translate(113,58)"/>
<path d="M0 0 C0.33 0.66 0.66 1.32 1 2 C1.66 2 2.32 2 3 2 C3 1.34 3 0.68 3 0 C5 1 5 1 6.25 3.3125 C7 6 7 6 6.125 8.3125 C5.568125 9.1478125 5.568125 9.1478125 5 10 C0.07692308 5.69230769 0.07692308 5.69230769 -0.3125 2.1875 C-0.209375 1.465625 -0.10625 0.74375 0 0 Z " fill="#AE265E" transform="translate(58,88)"/>
<path d="M0 0 C0.33 0 0.66 0 1 0 C1 8.25 1 16.5 1 25 C2.32 25.33 3.64 25.66 5 26 C3.68 26.99 2.36 27.98 1 29 C0 28 0 28 -0.11352539 25.31616211 C-0.10828857 24.14835205 -0.10305176 22.98054199 -0.09765625 21.77734375 C-0.09443359 20.51728516 -0.09121094 19.25722656 -0.08789062 17.95898438 C-0.07953403 16.61848891 -0.07106907 15.27799412 -0.0625 13.9375 C-0.0574866 12.59310058 -0.05292342 11.2486994 -0.04882812 9.90429688 C-0.03699488 6.60282059 -0.02050971 3.30143197 0 0 Z " fill="#B16062" transform="translate(83,87)"/>
<path d="M0 0 C0.66 0 1.32 0 2 0 C4.28062828 3.42094242 4.21925007 4.68187222 4.125 8.6875 C4.10695313 9.68136719 4.08890625 10.67523438 4.0703125 11.69921875 C4.03550781 12.83810547 4.03550781 12.83810547 4 14 C3.01 14 2.02 14 1 14 C0.67 9.38 0.34 4.76 0 0 Z " fill="#C5484A" transform="translate(83,50)"/>
<path d="M0 0 C0.99 0 1.98 0 3 0 C2.84152588 0.54817383 2.68305176 1.09634766 2.51977539 1.66113281 C1.9372438 4.28238816 1.78793845 6.73872553 1.68359375 9.421875 C1.64169922 10.44667969 1.59980469 11.47148438 1.55664062 12.52734375 C1.51732422 13.59082031 1.47800781 14.65429688 1.4375 15.75 C1.39431641 16.82894531 1.35113281 17.90789062 1.30664062 19.01953125 C1.20071011 21.67956428 1.09863579 24.33968812 1 27 C0.67 27 0.34 27 0 27 C0 18.09 0 9.18 0 0 Z " fill="#B34346" transform="translate(84,85)"/>
<path d="M0 0 C-0.185625 0.61875 -0.37125 1.2375 -0.5625 1.875 C-1.23686176 4.04160178 -1.23686176 4.04160178 0 6 C-1.65 6.66 -3.3 7.32 -5 8 C-5.99 6.68 -6.98 5.36 -8 4 C-5.57415142 1.34311822 -3.76063134 0 0 0 Z " fill="#A7295F" transform="translate(72,95)"/>
<path d="M0 0 C2.1875 0.3125 2.1875 0.3125 4 1 C4 1.66 4 2.32 4 3 C3.38125 3.0825 2.7625 3.165 2.125 3.25 C-0.18437567 3.81258459 -0.18437567 3.81258459 -1.25 6.0625 C-1.4975 6.701875 -1.745 7.34125 -2 8 C-3.32 6.68 -4.64 5.36 -6 4 C-5.67 3.34 -5.34 2.68 -5 2 C-4.34 2.33 -3.68 2.66 -3 3 C-2.5875 2.484375 -2.175 1.96875 -1.75 1.4375 C-1.1725 0.963125 -0.595 0.48875 0 0 Z " fill="#D4325D" transform="translate(70,46)"/>
<path d="M0 0 C0.66 0.33 1.32 0.66 2 1 C-2.50552315 4.10380484 -5.66396635 6.15304973 -11.1875 6.0625 C-13.0746875 6.0315625 -13.0746875 6.0315625 -15 6 C-15.33 5.01 -15.66 4.02 -16 3 C-15.26394531 3.03480469 -14.52789062 3.06960937 -13.76953125 3.10546875 C-6.42087184 3.33623084 -6.42087184 3.33623084 0 0 Z " fill="#9DA95C" transform="translate(107,30)"/>
<path d="M0 0 C4.65272826 1.23160454 6.71202698 3.69750469 9.5703125 7.34375 C11.08924941 9.2526135 11.08924941 9.2526135 14 11 C13.67 11.66 13.34 12.32 13 13 C11.39179588 11.58791833 9.78859292 10.17013964 8.1875 8.75 C7.29417969 7.96109375 6.40085937 7.1721875 5.48046875 6.359375 C3.35871775 4.34120555 1.65745577 2.40083295 0 0 Z " fill="#7D274E" transform="translate(61,99)"/>
<path d="M0 0 C0.66 0 1.32 0 2 0 C1.35796777 4.70823637 0.49725972 8.02633946 -2.375 11.8125 C-4 13 -4 13 -6.1875 12.6875 C-6.785625 12.460625 -7.38375 12.23375 -8 12 C-7.236875 11.319375 -6.47375 10.63875 -5.6875 9.9375 C-2.67156669 6.64101475 -1.54120983 4.13693165 0 0 Z " fill="#A55751" transform="translate(94,72)"/>
<path d="M0 0 C0.66 0.33 1.32 0.66 2 1 C1.01 5.95 0.02 10.9 -1 16 C-1.33 16 -1.66 16 -2 16 C-2.05423638 14.08364783 -2.09289963 12.16685075 -2.125 10.25 C-2.14820313 9.18265625 -2.17140625 8.1153125 -2.1953125 7.015625 C-2.00487687 4.07529894 -1.52670104 2.47638122 0 0 Z " fill="#A82157" transform="translate(64,60)"/>
<path d="M0 0 C0.66 0 1.32 0 2 0 C2 1.65 2 3.3 2 5 C4.31 5 6.62 5 9 5 C7 7 7 7 4.8359375 7.1953125 C3.61777344 7.16050781 3.61777344 7.16050781 2.375 7.125 C1.55773437 7.10695313 0.74046875 7.08890625 -0.1015625 7.0703125 C-0.72804688 7.04710937 -1.35453125 7.02390625 -2 7 C-2 3.89448334 -1.4606285 2.64738916 0 0 Z " fill="#9CBB43" transform="translate(95,27)"/>
<path d="M0 0 C0.33 0 0.66 0 1 0 C1.14695312 1.30324219 1.14695312 1.30324219 1.296875 2.6328125 C2.42136094 11.53942123 2.42136094 11.53942123 7 19 C5.68 19 4.36 19 3 19 C0.04328652 12.47059106 -0.35368021 7.12600133 0 0 Z " fill="#823659" transform="translate(66,64)"/>
<path d="M0 0 C0.66 0 1.32 0 2 0 C1.64212875 2.64824722 1.31760089 4.55535876 -0.25 6.75 C-2.44464124 8.31760089 -4.35175278 8.64212875 -7 9 C-7 8.34 -7 7.68 -7 7 C-6.01 7 -5.02 7 -4 7 C-3.67 6.01 -3.34 5.02 -3 4 C-2.34 4 -1.68 4 -1 4 C-0.67 2.68 -0.34 1.36 0 0 Z " fill="#C95344" transform="translate(94,78)"/>
<path d="M0 0 C3.73997229 5.60995843 3.11406407 11.47300069 3 18 C2.67 18 2.34 18 2 18 C1.50183264 15.28184409 1.00626136 12.56327723 0.515625 9.84375 C0.12433197 7.68570963 -0.27882784 5.52981683 -0.6875 3.375 C-0.790625 2.59125 -0.89375 1.8075 -1 1 C-0.67 0.67 -0.34 0.34 0 0 Z " fill="#DC5747" transform="translate(96,56)"/>
<path d="M0 0 C2.69082872 0.17635452 5.32851446 0.61835921 8 1 C8 1.33 8 1.66 8 2 C6.02 2 4.04 2 2 2 C2.66 4.31 3.32 6.62 4 9 C1.26299665 7.32248181 0.15454441 6.49929731 -0.8125 3.375 C-0.874375 2.59125 -0.93625 1.8075 -1 1 C-0.67 0.67 -0.34 0.34 0 0 Z " fill="#9AB063" transform="translate(75,23)"/>
<path d="M0 0 C0.99 0.33 1.98 0.66 3 1 C1.576875 1.86625 1.576875 1.86625 0.125 2.75 C-2.77930039 4.84109628 -3.93356107 5.69403932 -5 9 C-5 9.99 -5 10.98 -5 12 C-5.99 11.67 -6.98 11.34 -8 11 C-6.68874798 5.3616163 -4.671254 3.14594657 0 0 Z " fill="#97B257" transform="translate(97,19)"/>
<path d="M0 0 C0.66 0.66 1.32 1.32 2 2 C-0.64 5.3 -3.28 8.6 -6 12 C-6.33 11.34 -6.66 10.68 -7 10 C-5.6875 7.375 -5.6875 7.375 -4 5 C-3.34 5 -2.68 5 -2 5 C-1.855625 4.360625 -1.71125 3.72125 -1.5625 3.0625 C-1 1 -1 1 0 0 Z " fill="#BF614E" transform="translate(104,91)"/>
<path d="M0 0 C2.07358419 3.11037628 2.29487123 3.99561252 2.3125 7.5625 C2.33763672 8.74005859 2.33763672 8.74005859 2.36328125 9.94140625 C2.18345703 10.96041016 2.18345703 10.96041016 2 12 C1.01 12.66 0.02 13.32 -1 14 C-0.67 12.35 -0.34 10.7 0 9 C-0.66 8.67 -1.32 8.34 -2 8 C-1.34 8 -0.68 8 0 8 C0 5.36 0 2.72 0 0 Z " fill="#C84F3D" transform="translate(96,63)"/>
<path d="M0 0 C0.78375 0.185625 1.5675 0.37125 2.375 0.5625 C4.97089775 1.25962266 4.97089775 1.25962266 7 0 C7.33 1.65 7.66 3.3 8 5 C6.02 5 4.04 5 2 5 C1.34 3.35 0.68 1.7 0 0 Z " fill="#D75245" transform="translate(96,41)"/>
<path d="M0 0 C0.33 0.99 0.66 1.98 1 3 C2.65 2.34 4.3 1.68 6 1 C4.79618552 3.49361571 3.54571278 5.68143083 2 8 C1.34 8 0.68 8 0 8 C0 7.34 0 6.68 0 6 C-0.66 6 -1.32 6 -2 6 C-1.34 4.02 -0.68 2.04 0 0 Z " fill="#B0BF75" transform="translate(89,27)"/>
<path d="M0 0 C0.66 0.33 1.32 0.66 2 1 C1.38245741 2.31602523 0.75571258 3.62773556 0.125 4.9375 C-0.22304687 5.66839844 -0.57109375 6.39929688 -0.9296875 7.15234375 C-2 9 -2 9 -4 10 C-4 8.02 -4 6.04 -4 4 C-2.68 3.67 -1.36 3.34 0 3 C0 2.01 0 1.02 0 0 Z " fill="#9FBF55" transform="translate(115,18)"/>
<path d="M0 0 C-0.33 0.66 -0.66 1.32 -1 2 C-3.64860427 2.59355614 -6.29197322 2.74209269 -9 3 C-5.83583464 -0.30799106 -4.50236011 -1.35070803 0 0 Z " fill="#B64569" transform="translate(69,39)"/>
<path d="M0 0 C1.65 0 3.3 0 5 0 C4.67 1.98 4.34 3.96 4 6 C3.34 6 2.68 6 2 6 C1.34 4.02 0.68 2.04 0 0 Z " fill="#91B740" transform="translate(111,15)"/>
<path d="M0 0 C0.66 0 1.32 0 2 0 C1.67 1.65 1.34 3.3 1 5 C-0.98 5.66 -2.96 6.32 -5 7 C-4.34 6.01 -3.68 5.02 -3 4 C-2.34 4 -1.68 4 -1 4 C-0.67 2.68 -0.34 1.36 0 0 Z " fill="#94B743" transform="translate(109,25)"/>
<path d="M0 0 C0.99 0 1.98 0 3 0 C3.33 0.66 3.66 1.32 4 2 C6.52733235 2.65555119 6.52733235 2.65555119 9 3 C9 3.33 9 3.66 9 4 C6.36 4 3.72 4 1 4 C0.67 2.68 0.34 1.36 0 0 Z " fill="#D4CFD2" transform="translate(61,123)"/>
</svg>
